<?xml version="1.0" encoding="utf-8"?>
<!-- Generator: Adobe Illustrator 26.0.3, SVG Export Plug-In . SVG Version: 6.00 Build 0)  -->
<svg version="1.1" id="Layer_1" xmlns="http://www.w3.org/2000/svg" xmlns:xlink="http://www.w3.org/1999/xlink" x="0px" y="0px"
	 viewBox="0 0 32 32" style="enable-background:new 0 0 32 32;" xml:space="preserve">
<style type="text/css">
	.st0{fill:#E52C42;}
</style>
<path class="st0" d="M29.6,8.3H29V7h-1V5.7h-1.4V4.5h-2.2V3.4h-3v1.1h-2.5v1.2h-1.4V7h-1v1.2h-1V7h-1V5.7h-1.4V4.5h-2.5V3.4h-3v1.1
	H5.4v1.2H4V7H3v1.3H2.4v6.6h0.9v1.3h0.5v1.2h0.7v1.3h0.9v1.3h0.9v1.2h1v1.3h1.4v1.3h1.3v1.2h1.6v1.3h1.7v1.3h0.1h1.5v1.2H15h2h0.1
	v-1.2h1.5h0.1v-1.3h1.7v-1.3h1.6v-1.2h1.3v-1.3h1.4v-1.3h1v-1.2h0.9v-1.3h0.9v-1.3h0.7v-1.2h0.5v-1.3h0.9V8.3z"/>
</svg>
